<?xml version="1.0" standalone="no"?>
<!DOCTYPE svg PUBLIC "-//W3C//DTD SVG 20010904//EN"
 "http://www.w3.org/TR/2001/REC-SVG-20010904/DTD/svg10.dtd">
<svg version="1.0" xmlns="http://www.w3.org/2000/svg"
 width="1080.000000pt" height="1080.000000pt" viewBox="0 0 1080.000000 1080.000000"
 preserveAspectRatio="xMidYMid meet">

<g transform="translate(0.000000,1080.000000) scale(0.100000,-0.100000)"
fill="#000000" stroke="none">
<path d="M5747 9343 c-4 -3 -7 -36 -7 -73 0 -37 -4 -80 -10 -96 -9 -26 -23
-151 -52 -480 -6 -66 -9 -128 -5 -137 4 -12 18 -17 46 -17 45 0 51 9 51 82 0
28 7 101 15 162 8 61 19 161 25 221 6 61 15 156 21 213 6 56 9 109 5 117 -5
15 -76 22 -89 8z"/>
<path d="M6085 9273 c-3 -21 -11 -63 -17 -93 -6 -30 -16 -89 -23 -130 -7 -41
-15 -82 -19 -90 -3 -8 -10 -44 -16 -80 -9 -64 -24 -142 -57 -288 -9 -42 -12
-77 -7 -82 5 -4 27 -11 49 -15 l41 -6 18 93 c9 51 22 113 28 138 5 25 16 79
23 120 17 95 32 177 50 265 38 182 38 189 2 199 -52 14 -66 8 -72 -31z"/>
<path d="M4630 9260 c-30 -10 -131 -38 -180 -50 -19 -4 -71 -18 -115 -30 -44
-12 -102 -26 -128 -32 -55 -12 -53 0 -18 -128 22 -76 40 -148 60 -230 6 -25
18 -69 26 -97 8 -29 21 -77 29 -105 8 -29 25 -87 37 -129 l22 -76 31 10 c17 6
37 11 44 13 16 4 15 47 -3 91 -8 19 -15 44 -15 54 0 10 -6 38 -14 61 -28 85
-28 96 -4 109 12 6 47 17 77 24 31 7 90 23 131 35 41 11 91 24 110 28 19 4 35
10 34 12 0 3 -4 22 -8 44 -6 33 -10 37 -29 33 -12 -3 -53 -13 -92 -22 -38 -9
-74 -20 -79 -25 -6 -6 -23 -10 -38 -10 -16 0 -45 -7 -65 -15 -19 -8 -47 -15
-62 -15 -24 0 -29 6 -43 53 -14 45 -48 177 -52 200 -1 8 99 46 124 47 8 0 44
8 80 19 36 11 94 27 130 37 36 10 68 20 72 23 4 4 5 23 1 44 -6 39 -15 43 -63
27z"/>
<path d="M5376 9038 c3 -57 9 -128 13 -158 12 -95 -18 -176 -83 -224 -22 -17
-42 -21 -106 -21 -72 0 -81 2 -108 28 -46 44 -62 114 -62 268 0 176 -1 179
-56 179 l-44 0 1 -122 c0 -128 10 -237 27 -299 12 -47 66 -107 117 -130 87
-40 227 -17 297 49 l27 25 7 -41 c6 -39 8 -41 38 -36 63 11 60 1 52 167 -3 83
-11 212 -18 285 l-11 132 -48 0 -49 0 6 -102z"/>
<path d="M6780 9015 c-42 -11 -64 -24 -92 -54 -21 -22 -38 -49 -38 -60 0 -11
-4 -23 -10 -26 -16 -10 -11 -70 9 -119 23 -53 50 -82 151 -161 83 -66 119
-104 137 -148 11 -24 10 -34 -7 -66 -24 -49 -64 -65 -134 -58 -88 9 -212 86
-264 165 -14 20 -27 39 -29 41 -8 10 -53 -45 -53 -65 0 -22 66 -97 125 -142
17 -12 59 -36 94 -53 56 -27 77 -31 156 -32 115 -2 156 19 204 109 55 103 14
177 -187 338 -79 64 -102 97 -102 146 0 43 13 64 55 89 43 25 68 26 126 6 81
-29 124 -54 169 -100 50 -51 67 -55 99 -21 l23 25 -53 53 c-64 63 -165 119
-234 129 -27 5 -59 10 -70 13 -11 2 -45 -2 -75 -9z"/>
<path d="M7396 8631 c-14 -22 -30 -42 -35 -46 -6 -3 -28 6 -50 19 l-39 25 -16
-24 c-22 -33 -21 -36 20 -70 l35 -30 -89 -135 c-144 -218 -150 -235 -111 -309
23 -44 66 -81 123 -105 52 -22 73 -20 80 7 12 45 7 55 -31 62 -42 8 -93 54
-93 85 0 12 5 31 11 43 10 19 185 285 195 296 2 2 31 -15 65 -38 34 -22 67
-41 74 -41 7 0 20 12 30 26 19 30 9 49 -40 70 -35 16 -75 48 -75 61 0 5 14 29
32 52 l32 44 -28 23 c-39 34 -62 30 -90 -15z"/>
<path d="M3185 8405 c-40 -41 -53 -69 -63 -129 l-7 -39 -32 33 c-31 32 -31 32
-51 12 -11 -11 -25 -21 -32 -24 -10 -3 -10 -9 0 -28 7 -13 17 -29 21 -34 32
-39 98 -123 155 -196 89 -113 166 -200 177 -200 5 0 21 10 36 23 32 27 30 42
-14 89 -17 18 -38 44 -46 58 -9 14 -39 52 -67 85 -85 99 -94 196 -27 270 19
21 35 43 35 49 -1 6 -12 24 -25 40 l-24 30 -36 -39z"/>
<path d="M3869 8307 c-32 -25 -41 -54 -25 -90 17 -42 56 -56 93 -32 47 31 49
81 5 115 -28 23 -50 25 -73 7z"/>
<path d="M7676 8238 c-12 -46 -7 -56 30 -63 82 -15 183 -96 195 -156 12 -55
-1 -105 -32 -128 l-28 -21 -85 79 c-105 98 -158 125 -228 119 -42 -5 -56 -12
-91 -47 -41 -40 -42 -43 -42 -109 0 -40 5 -73 13 -82 7 -8 22 -30 35 -49 28
-43 123 -101 176 -108 44 -6 50 -13 26 -33 -8 -7 -15 -18 -14 -24 0 -17 56
-57 71 -50 7 3 35 31 62 62 27 32 83 93 124 137 41 44 83 94 93 110 26 41 26
143 0 193 -22 43 -90 115 -130 137 -109 60 -164 71 -175 33z m-35 -281 c19
-13 62 -50 97 -83 l62 -60 -43 -42 c-35 -34 -50 -42 -80 -42 -66 0 -165 67
-188 128 -35 92 66 157 152 99z"/>
<path d="M2725 7983 c-44 -23 -113 -92 -138 -138 -30 -54 -32 -222 -4 -252 9
-11 17 -24 17 -29 0 -5 13 -26 30 -46 63 -76 185 -119 281 -99 72 16 107 36
166 97 70 72 93 119 93 189 l0 56 -32 -3 c-31 -3 -34 -7 -53 -64 -24 -73 -51
-112 -102 -147 -53 -37 -117 -47 -176 -30 -72 21 -72 20 104 208 36 38 87 94
113 124 l47 53 -22 24 c-12 13 -45 35 -73 49 -42 21 -64 25 -135 25 -58 -1
-96 -6 -116 -17z m171 -74 c27 -11 50 -22 53 -24 6 -7 -48 -74 -132 -162 -44
-45 -86 -92 -94 -103 -8 -11 -20 -20 -28 -20 -18 0 -55 83 -55 124 1 75 73
167 151 191 57 18 50 18 105 -6z"/>
<path d="M8071 7710 c-79 -29 -147 -92 -184 -170 -27 -57 -29 -175 -4 -214 10
-14 17 -32 17 -39 0 -24 106 -126 152 -147 46 -21 103 -26 113 -10 3 5 3 25 0
44 -6 30 -12 35 -43 41 -55 10 -101 43 -133 94 -24 37 -29 56 -29 107 0 53 5
68 33 110 19 29 52 60 82 77 43 25 57 29 111 25 69 -4 111 -29 161 -95 23 -30
28 -46 29 -102 1 -66 1 -66 39 -84 20 -10 40 -15 43 -12 4 3 8 37 10 74 3 57
0 77 -22 125 -69 150 -235 229 -375 176z"/>
<path d="M2325 7439 c-60 -32 -103 -77 -137 -146 -28 -57 -30 -69 -26 -133 5
-72 -4 -89 -32 -55 -18 21 -36 19 -54 -7 -30 -42 -21 -61 46 -98 67 -38 133
-76 224 -129 58 -34 89 -51 162 -92 20 -12 78 -46 129 -75 50 -30 96 -54 102
-54 9 0 51 69 51 84 0 2 -12 9 -27 15 -16 6 -46 22 -68 35 -22 14 -58 34 -80
47 -81 44 -81 47 -12 83 129 66 193 233 136 361 -25 56 -103 136 -162 164 -62
30 -196 30 -252 0z m230 -105 c103 -60 141 -164 94 -257 -59 -118 -168 -158
-277 -103 -123 63 -164 183 -101 296 54 97 181 125 284 64z"/>
<path d="M8710 7268 c-58 -28 -163 -78 -235 -113 -71 -34 -169 -80 -218 -103
-48 -23 -91 -42 -96 -42 -4 0 -16 -8 -25 -19 -16 -17 -16 -21 -1 -59 l16 -40
72 34 72 34 65 -23 c36 -12 71 -26 78 -31 16 -9 7 -63 -14 -87 -8 -8 -14 -20
-14 -25 0 -5 -23 -53 -50 -107 -28 -55 -50 -105 -50 -113 0 -8 10 -33 21 -56
20 -40 22 -41 36 -22 8 10 51 93 96 183 45 90 87 166 94 168 7 3 74 -18 149
-46 133 -49 170 -59 162 -43 -3 4 -12 25 -22 48 -11 25 -28 44 -44 51 -137 53
-333 133 -352 143 -34 16 -23 23 235 146 66 31 139 65 163 75 44 19 49 32 30
74 -16 37 -47 32 -168 -27z"/>
<path d="M2025 6756 c-63 -29 -108 -73 -142 -140 -23 -44 -27 -63 -27 -146 -1
-74 3 -103 18 -130 37 -68 68 -99 130 -130 55 -26 73 -30 147 -30 97 0 138 16
202 77 46 45 64 77 83 150 16 63 18 112 5 145 -5 13 -12 35 -15 50 -10 47 -99
132 -161 156 -79 30 -173 30 -240 -2z m217 -99 c58 -26 70 -38 99 -94 45 -89
7 -209 -84 -267 -44 -28 -158 -29 -202 -1 -86 54 -130 123 -122 192 7 63 47
133 93 165 53 37 140 39 216 5z"/>
<path d="M9097 6239 c-48 -4 -109 -12 -135 -18 -26 -5 -96 -15 -157 -21 -60
-7 -162 -18 -225 -25 -63 -8 -119 -14 -124 -14 -4 -1 -6 -20 -3 -43 3 -24 10
-92 17 -153 12 -115 40 -247 59 -284 27 -50 74 -112 99 -131 15 -11 32 -24 38
-29 6 -5 32 -18 59 -30 38 -17 67 -21 152 -21 100 0 108 2 179 36 85 42 124
82 165 167 36 77 44 156 30 309 -19 196 -36 272 -60 267 -3 -1 -46 -5 -94 -10z
m47 -121 c16 -85 29 -191 30 -238 1 -125 -60 -229 -165 -283 -47 -23 -66 -27
-139 -27 -76 0 -91 3 -137 30 -28 16 -67 49 -85 72 -42 52 -78 149 -78 209 0
24 -5 73 -11 108 -6 42 -7 67 0 74 5 5 53 14 107 18 53 5 110 12 128 18 17 5
76 12 131 15 55 3 114 10 130 15 56 17 84 13 89 -11z"/>
<path d="M1512 6105 c-29 -64 -11 -80 100 -94 72 -9 181 -28 331 -56 42 -8 90
-15 106 -15 16 0 57 -7 90 -16 33 -8 86 -14 118 -12 l58 3 3 42 3 41 -68 6
c-37 4 -83 11 -100 17 -18 6 -63 14 -100 18 -38 5 -93 13 -123 19 -74 15 -286
50 -330 56 -19 2 -44 7 -56 11 -16 5 -23 0 -32 -20z"/>
<path d="M1880 5781 c-75 -28 -113 -58 -150 -113 -32 -49 -35 -59 -38 -144 -3
-75 0 -99 16 -136 36 -77 135 -158 194 -158 15 0 37 -4 50 -9 30 -11 144 10
183 34 43 27 86 67 96 90 5 11 13 27 18 35 20 34 33 97 33 155 -1 140 -78 252
-126 183 -14 -19 -13 -25 12 -67 23 -39 27 -57 26 -122 0 -67 -4 -80 -32 -121
-36 -52 -70 -77 -116 -85 l-33 -5 5 241 5 241 -49 -1 c-27 0 -69 -8 -94 -18z
m76 -95 c6 -15 -14 -357 -21 -364 -2 -2 -17 -1 -34 3 -44 9 -106 72 -126 127
-15 45 -15 51 0 105 9 31 25 68 36 81 38 49 133 80 145 48z"/>
<path d="M8671 5341 c-59 -24 -117 -73 -140 -119 -25 -49 -51 -143 -51 -181 0
-48 30 -146 54 -175 l21 -26 30 24 30 24 -23 46 c-40 84 -25 200 37 270 22 25
85 56 114 56 33 0 37 -22 22 -111 -16 -92 -37 -350 -29 -358 3 -3 38 -5 78 -5
91 2 131 20 196 91 60 65 74 110 68 218 -4 79 -18 114 -70 175 -67 78 -233
113 -337 71z m230 -105 c44 -18 63 -39 88 -99 22 -51 27 -102 12 -112 -5 -3
-12 -18 -16 -34 -3 -15 -20 -42 -38 -59 -33 -32 -121 -75 -131 -65 -10 10 -7
155 4 193 5 19 13 70 16 112 7 85 10 87 65 64z"/>
<path d="M1690 5106 c0 -7 3 -27 6 -43 6 -32 19 -38 189 -79 55 -14 122 -32
149 -40 26 -7 62 -14 78 -14 16 0 43 -7 59 -16 25 -12 28 -18 18 -30 -6 -8
-22 -20 -34 -27 -38 -20 -123 -73 -250 -155 -128 -83 -138 -97 -116 -155 l10
-27 58 39 c32 21 92 59 133 86 41 27 132 86 203 132 l127 83 0 40 c0 49 -24
76 -77 85 -21 4 -58 13 -83 20 -25 8 -67 18 -95 24 -63 12 -127 29 -185 47
-25 8 -66 17 -93 20 -26 4 -50 11 -53 15 -8 14 -44 10 -44 -5z"/>
<path d="M8925 4639 c-16 -5 -87 -14 -157 -19 -69 -6 -138 -14 -153 -20 -14
-5 -52 -10 -83 -10 -122 0 -144 -12 -157 -82 -7 -37 1 -45 150 -166 11 -9 56
-48 101 -86 45 -39 94 -81 110 -93 16 -12 44 -35 63 -52 44 -39 58 -39 69 2
12 43 8 50 -51 95 -29 22 -70 56 -92 77 -44 41 -132 115 -188 159 -68 53 -59
57 174 77 69 6 163 18 208 27 l83 17 14 40 c7 22 14 41 14 43 0 6 -78 -1 -105
-9z"/>
<path d="M2287 4532 c-26 -28 -21 -46 24 -81 109 -88 118 -276 16 -349 -30
-21 -33 -21 -45 -5 -7 10 -15 29 -18 43 -3 14 -12 41 -19 60 -7 19 -23 62 -35
95 -12 33 -28 74 -35 90 -7 17 -16 43 -20 59 -9 41 -35 76 -57 76 -31 0 -90
-35 -129 -77 -108 -115 -102 -279 15 -402 57 -60 114 -84 201 -84 211 -1 352
191 288 394 -9 30 -22 61 -30 70 -7 8 -13 20 -13 25 -1 22 -92 104 -115 104
-6 0 -19 -8 -28 -18z m-182 -154 c10 -24 22 -54 26 -68 4 -14 17 -50 29 -80
12 -30 28 -76 36 -102 8 -26 19 -50 24 -53 22 -14 -4 -25 -55 -25 -45 0 -60 5
-96 33 -73 56 -84 78 -84 167 l0 79 45 46 c24 25 47 45 51 45 3 0 14 -19 24
-42z"/>
<path d="M8364 4141 c-99 -24 -175 -87 -223 -185 -36 -74 -45 -122 -36 -182 7
-51 22 -62 60 -42 25 12 27 18 29 83 2 70 19 114 65 169 53 62 202 89 209 38
2 -13 -2 -29 -8 -37 -6 -8 -26 -42 -44 -77 -18 -35 -58 -111 -90 -169 -31 -58
-56 -115 -56 -126 0 -25 63 -52 142 -60 109 -11 217 52 271 159 23 45 27 66
27 137 0 98 -14 133 -77 196 -73 73 -190 115 -269 96z m223 -184 c15 -18 35
-51 42 -75 13 -38 12 -48 -4 -95 -22 -65 -50 -99 -103 -126 -40 -20 -104 -27
-136 -15 -17 7 -21 34 -7 49 5 6 39 69 76 140 93 179 87 173 132 122z"/>
<path d="M2365 3888 c-82 -29 -143 -65 -187 -110 -51 -53 -88 -114 -88 -147 0
-11 -4 -23 -10 -26 -15 -9 -12 -130 5 -189 23 -78 45 -118 173 -308 65 -99 86
-114 112 -83 7 8 16 15 21 15 4 0 54 31 111 68 57 38 183 121 281 186 98 64
180 123 184 131 3 9 -8 34 -23 56 -16 22 -36 51 -44 64 -59 93 -81 124 -125
182 -54 71 -142 139 -203 156 -53 14 -172 17 -207 5z m173 -100 c65 -16 122
-58 181 -133 28 -36 51 -68 51 -73 0 -5 16 -31 35 -58 19 -27 35 -53 35 -57 0
-10 -52 -56 -64 -57 -4 0 -100 -61 -212 -135 -112 -74 -207 -135 -212 -135 -8
0 -28 27 -84 115 -7 11 -26 39 -41 62 -33 51 -66 145 -67 190 0 39 32 123 62
164 35 47 120 106 169 117 61 14 93 14 147 0z"/>
<path d="M7920 3604 l-24 -36 34 -29 c19 -16 39 -29 43 -29 5 0 25 -13 45 -30
45 -36 149 -113 272 -200 145 -103 223 -158 249 -177 23 -16 24 -16 47 11 13
15 24 33 24 41 0 14 -77 76 -210 170 -92 65 -212 152 -225 163 -6 5 -35 26
-65 47 -30 21 -75 53 -99 72 -24 18 -49 33 -55 33 -6 0 -22 -16 -36 -36z"/>
<path d="M7767 3344 c-79 -21 -174 -105 -210 -184 -30 -66 -29 -169 3 -235 47
-97 147 -170 250 -182 74 -9 168 27 229 86 87 84 119 181 97 287 -23 110 -111
201 -221 230 -65 16 -83 16 -148 -2z m179 -121 c111 -69 135 -220 50 -312 -84
-91 -196 -96 -288 -13 -83 75 -104 184 -49 258 62 85 102 106 189 99 35 -2 68
-13 98 -32z"/>
<path d="M7198 3147 c-21 -12 -38 -28 -38 -36 0 -7 34 -64 75 -126 41 -62 75
-115 75 -118 0 -4 -20 -4 -44 -1 -100 14 -232 -68 -286 -176 -66 -131 7 -317
152 -389 102 -51 207 -40 305 33 47 35 93 100 93 131 0 11 4 27 10 35 7 12 13
10 34 -13 14 -15 32 -27 41 -27 21 0 58 39 52 54 -3 7 -47 75 -99 151 -51 75
-102 152 -113 171 -11 18 -60 94 -110 168 -49 74 -94 141 -100 150 -9 13 -15
12 -47 -7z m128 -372 c47 -20 80 -46 112 -92 24 -34 27 -47 27 -120 l0 -82
-40 -41 c-96 -99 -191 -106 -289 -19 -44 38 -86 119 -86 164 0 44 45 129 84
158 58 45 132 57 192 32z"/>
<path d="M3204 3045 c-93 -29 -162 -95 -206 -195 -25 -56 -27 -152 -4 -195 9
-16 16 -34 16 -39 0 -5 29 -37 63 -71 69 -68 106 -85 190 -85 26 0 47 -2 47
-5 0 -9 -62 -92 -117 -158 -62 -72 -68 -104 -24 -130 33 -19 42 -14 87 48 16
22 40 52 54 68 13 16 40 50 60 77 58 81 236 312 272 354 60 71 62 75 43 96
-30 33 -54 34 -82 4 l-26 -28 -23 68 c-34 102 -102 164 -211 192 -64 17 -84
16 -139 -1z m152 -99 c182 -60 182 -308 -1 -396 -54 -26 -89 -25 -150 4 -75
35 -135 114 -135 178 0 84 80 189 167 220 27 9 53 15 58 14 6 -2 33 -11 61
-20z"/>
<path d="M3793 2664 c-15 -6 -17 -52 -4 -73 7 -11 15 -11 43 -2 28 9 44 8 92
-9 110 -38 145 -69 172 -154 21 -65 11 -113 -20 -108 -10 2 -100 44 -200 93
-100 49 -191 89 -202 89 -57 0 -82 -190 -37 -276 47 -89 150 -154 254 -162 56
-4 75 -1 126 23 71 31 110 70 148 142 35 69 43 151 21 228 -14 45 -29 69 -69
109 -78 77 -125 99 -227 102 -47 2 -91 1 -97 -2z m102 -340 c85 -42 157 -79
160 -84 3 -4 -5 -20 -17 -35 -66 -84 -242 -69 -304 25 -39 59 -45 170 -9 170
9 0 85 -34 170 -76z"/>
<path d="M6552 2540 c-68 -24 -142 -79 -175 -128 -27 -41 -25 -52 10 -71 32
-17 39 -14 63 23 45 74 169 121 255 97 43 -11 115 -65 115 -84 0 -12 -54 -47
-72 -47 -6 0 -29 -9 -52 -19 -23 -11 -84 -36 -136 -56 -124 -47 -180 -73 -180
-84 0 -19 79 -128 111 -152 75 -56 190 -76 253 -44 15 8 34 15 41 15 26 0 107
73 135 123 26 46 30 61 30 135 0 101 -26 165 -92 229 -81 79 -196 102 -306 63z
m308 -302 c0 -68 -24 -115 -78 -153 -39 -27 -52 -30 -116 -30 -61 0 -78 4
-109 25 -29 20 -66 69 -55 74 2 0 18 9 36 19 19 9 39 17 45 17 6 0 29 9 51 19
76 35 191 80 209 80 14 1 17 -8 17 -51z"/>
<path d="M4505 2357 c-112 -204 -181 -331 -253 -467 -10 -19 -37 -70 -61 -112
-45 -83 -46 -81 15 -92 28 -4 35 -1 58 32 14 21 26 40 26 43 0 5 118 223 140
259 5 8 23 42 40 75 17 33 35 67 40 75 5 8 19 32 31 54 l22 38 13 -23 c7 -13
14 -44 14 -69 1 -25 5 -67 11 -95 5 -27 16 -98 24 -158 8 -59 17 -112 21 -119
4 -6 11 -51 15 -101 5 -49 11 -92 14 -95 2 -3 26 -7 52 -9 l48 -5 70 128 c39
70 85 155 103 188 18 34 51 91 73 128 21 36 39 70 39 75 0 4 9 19 19 33 l19
25 7 -30 c22 -104 27 -135 59 -382 8 -62 20 -121 25 -132 6 -11 11 -40 11 -65
0 -48 0 -47 69 -61 l34 -7 -7 73 c-3 40 -13 109 -21 154 -24 136 -37 217 -45
294 -5 40 -13 94 -19 120 -5 25 -13 72 -16 104 -7 63 -14 70 -81 81 l-41 7
-55 -98 c-30 -54 -65 -118 -77 -143 -13 -25 -31 -58 -40 -75 -9 -16 -34 -61
-55 -100 -91 -165 -87 -159 -101 -138 -7 10 -15 54 -19 98 -4 44 -13 112 -21
150 -8 39 -19 106 -25 150 -26 185 -32 220 -38 226 -4 4 -30 10 -57 14 l-50 6
-30 -54z"/>
<path d="M6107 2393 c-15 -4 -18 -11 -13 -31 7 -30 31 -142 46 -212 5 -25 9
-74 9 -110 1 -86 -20 -120 -99 -160 -33 -17 -60 -33 -60 -37 0 -15 25 -73 31
-73 30 0 102 45 137 86 l41 48 6 -30 c13 -55 12 -55 52 -48 52 9 55 14 43 65
-28 114 -51 219 -59 266 -5 29 -14 67 -19 85 -6 18 -13 53 -17 78 -11 76 -13
80 -48 79 -18 -1 -40 -3 -50 -6z"/>
<path d="M5706 2308 c-37 -52 -11 -112 49 -112 62 0 93 57 59 109 -22 34 -86
35 -108 3z"/>
</g>
</svg>
